<svg width="54" height="55" viewBox="0 0 54 55" fill="none" xmlns="http://www.w3.org/2000/svg">
<path d="M42.9812 0.767578H11.2067C5.25564 0.767578 0.4375 5.58559 0.4375 11.5365V43.3169C0.4375 49.2611 5.25564 54.0791 11.2067 54.0791H42.9879C48.9323 54.0791 53.7571 49.2611 53.7571 43.3102V11.5365C53.7505 5.58559 48.9323 0.767578 42.9812 0.767578Z" fill="url(#paint0_linear_316_2606)"/>
<path d="M26.8669 13.0162L27.9465 11.1503C28.6129 9.98403 30.099 9.59092 31.2652 10.2573C32.4315 10.9237 32.8246 12.4097 32.1582 13.5759L21.7555 31.582H29.2793C31.7183 31.582 33.0844 34.4475 32.0249 36.4333H9.96675C8.62063 36.4333 7.54102 35.3537 7.54102 34.0076C7.54102 32.6616 8.62063 31.582 9.96675 31.582H16.1511L24.0681 17.8609L21.5957 13.5693C20.9293 12.403 21.3225 10.9303 22.4887 10.2506C23.655 9.58425 25.1277 9.97737 25.8075 11.1436L26.8669 13.0162Z" fill="white"/>
<path d="M17.5106 38.9318L15.1782 42.9768C14.5118 44.1431 13.0257 44.5362 11.8595 43.8698C10.6932 43.2034 10.3001 41.7174 10.9665 40.5512L12.6991 37.5524C14.6583 36.946 16.251 37.4125 17.5106 38.9318Z" fill="white"/>
<path d="M37.5973 31.595H43.9082C45.2543 31.595 46.3339 32.6746 46.3339 34.0207C46.3339 35.3667 45.2543 36.4463 43.9082 36.4463H40.4028L42.7686 40.5513C43.435 41.7175 43.0418 43.1903 41.8756 43.87C40.7093 44.5363 39.2366 44.1432 38.5569 42.977C34.5717 36.0664 31.5795 30.8953 29.5936 27.45C27.561 23.9448 29.0139 20.4262 30.4466 19.2334C32.0395 21.9656 34.4185 26.0906 37.5973 31.595Z" fill="white"/>
<defs>
<linearGradient id="paint0_linear_316_2606" x1="27.0973" y1="0.767578" x2="27.0973" y2="54.0791" gradientUnits="userSpaceOnUse">
<stop stop-color="#00BFFC"/>
<stop offset="1" stop-color="#0073F6"/>
</linearGradient>
</defs>
</svg>
