<svg width="43" height="43" viewBox="0 0 43 43" fill="none" xmlns="http://www.w3.org/2000/svg">
<g clip-path="url(#clip0_902_10920)">
<path d="M21.5 43C33.3741 43 43 33.3741 43 21.5C43 9.62588 33.3741 0 21.5 0C9.62588 0 0 9.62588 0 21.5C0 33.3741 9.62588 43 21.5 43Z" fill="white"/>
<path d="M30.9287 12.8836C29.1423 12.0626 27.2657 11.4852 25.3259 11.1514C25.0823 11.5844 24.8026 12.1619 24.6131 12.622C22.5561 12.3152 20.4629 12.3152 18.4058 12.622C18.1893 12.1167 17.9367 11.6295 17.666 11.1514C15.7262 11.4762 13.8406 12.0626 12.0632 12.8927C8.52648 18.1616 7.57012 23.3043 8.0483 28.3748C10.1234 29.9176 12.4512 31.0905 14.9233 31.8394C15.4826 31.0815 15.9698 30.2875 16.3939 29.4485C15.5909 29.1507 14.815 28.7808 14.0752 28.3387C14.2646 28.1944 14.4541 28.05 14.6345 27.8966C18.9833 29.9537 24.0267 29.9537 28.3844 27.8966C28.5649 28.05 28.7634 28.1944 28.9528 28.3387C28.213 28.7808 27.4371 29.1507 26.6341 29.4485C27.0582 30.2785 27.5544 31.0815 28.1047 31.8303C30.5768 31.0815 32.9046 29.9086 34.9797 28.3658C35.521 22.5013 33.9963 17.4038 30.9287 12.8836ZM16.9893 25.2622C15.645 25.2622 14.5533 24.0351 14.5533 22.5284C14.5533 21.0217 15.627 19.7857 16.9893 19.7857C18.3517 19.7857 19.4434 21.0127 19.4344 22.5194C19.4163 24.0351 18.3517 25.2622 16.9893 25.2622ZM26.0116 25.2622C24.6673 25.2622 23.5756 24.0351 23.5756 22.5284C23.5756 21.0217 24.6492 19.7857 26.0116 19.7857C27.3739 19.7857 28.4656 21.0127 28.4476 22.5194C28.4386 24.0351 27.3739 25.2622 26.0116 25.2622Z" fill="#2258B9"/>
</g>
<defs>
<clipPath id="clip0_902_10920">
<rect width="43" height="43" fill="white"/>
</clipPath>
</defs>
</svg>
