<svg width="43" height="43" viewBox="0 0 43 43" fill="none" xmlns="http://www.w3.org/2000/svg">
<g clip-path="url(#clip0_902_10935)">
<path d="M21.5 43C33.3741 43 43 33.3741 43 21.5C43 9.62588 33.3741 0 21.5 0C9.62588 0 0 9.62588 0 21.5C0 33.3741 9.62588 43 21.5 43Z" fill="white"/>
<path d="M23.882 35.1962V23.2147H27.8788L28.6367 18.2615H23.882V15.0405C23.882 13.6872 24.5496 12.3609 26.6789 12.3609H28.8442V8.13851C28.8442 8.13851 26.8774 7.80469 25.0098 7.80469C21.0941 7.80469 18.5318 10.1775 18.5318 14.4721V18.2524H14.165V23.2057H18.5228V35.1872H23.882V35.1962Z" fill="#2258B9"/>
</g>
<defs>
<clipPath id="clip0_902_10935">
<rect width="43" height="43" fill="white"/>
</clipPath>
</defs>
</svg>
