<svg width="43" height="43" viewBox="0 0 43 43" fill="none" xmlns="http://www.w3.org/2000/svg">
<g clip-path="url(#clip0_902_10924)">
<path d="M21.5 43C33.3741 43 43 33.3741 43 21.5C43 9.62588 33.3741 0 21.5 0C9.62588 0 0 9.62588 0 21.5C0 33.3741 9.62588 43 21.5 43Z" fill="white"/>
<path d="M27.4274 14.3096C26.7056 14.3096 26.1191 14.896 26.1191 15.6178C26.1191 16.3396 26.7056 16.926 27.4274 16.926C28.1491 16.926 28.7356 16.3396 28.7356 15.6178C28.7356 14.896 28.1491 14.3096 27.4274 14.3096Z" fill="#2258B9"/>
<path d="M21.5907 15.9873C18.5502 15.9873 16.0781 18.4594 16.0781 21.4999C16.0781 24.5404 18.5502 27.0125 21.5907 27.0125C24.6312 27.0125 27.1033 24.5404 27.1033 21.4999C27.1033 18.4594 24.6312 15.9873 21.5907 15.9873ZM21.5907 25.0276C19.6419 25.0276 18.063 23.4397 18.063 21.4999C18.063 19.5601 19.6509 17.9722 21.5907 17.9722C23.5395 17.9722 25.1184 19.5601 25.1184 21.4999C25.1184 23.4397 23.5395 25.0276 21.5907 25.0276Z" fill="#2258B9"/>
<path d="M25.9661 32.6877H17.0341C13.3259 32.6877 10.3125 29.6742 10.3125 25.9661V17.0341C10.3125 13.3259 13.3259 10.3125 17.0341 10.3125H25.9661C29.6742 10.3125 32.6877 13.3259 32.6877 17.0341V25.9661C32.6877 29.6742 29.6742 32.6877 25.9661 32.6877ZM17.0341 12.4147C14.4898 12.4147 12.4147 14.4898 12.4147 17.0341V25.9661C12.4147 28.5104 14.4898 30.5855 17.0341 30.5855H25.9661C28.5104 30.5855 30.5855 28.5104 30.5855 25.9661V17.0341C30.5855 14.4898 28.5104 12.4147 25.9661 12.4147H17.0341Z" fill="#2258B9"/>
</g>
<defs>
<clipPath id="clip0_902_10924">
<rect width="43" height="43" fill="white"/>
</clipPath>
</defs>
</svg>
