<svg width="54" height="57" viewBox="0 0 54 57" fill="none" xmlns="http://www.w3.org/2000/svg">
<path d="M29.94 27.308L2.42657 54.8197C1.11133 53.5757 0.400391 51.8695 0.400391 50.0212V6.86965C0.400391 4.98577 1.14688 3.27962 2.49767 2L29.94 27.308Z" fill="#2196F3"/>
<path d="M53.7195 28.4451C53.7195 30.9332 52.3687 33.137 50.1292 34.3811L42.3089 38.7175L32.6045 29.7602L29.9385 27.3076L40.2116 17.0352L50.1292 22.5091C52.3687 23.7531 53.7195 25.9569 53.7195 28.4451Z" fill="#FFC107"/>
<path d="M29.9404 27.3081L2.49805 2.00012C2.85352 1.64467 3.31563 1.32477 3.77774 1.04041C6.01721 -0.310297 8.71878 -0.345842 11.0293 0.933774L40.2135 17.0356L29.9404 27.3081Z" fill="#4CAF50"/>
<path d="M42.3106 38.7185L11.0292 55.9578C9.92719 56.5976 8.68304 56.882 7.47444 56.882C6.19475 56.882 4.91505 56.5621 3.77755 55.8512C3.27989 55.5668 2.81778 55.2113 2.42676 54.8204L29.9402 27.3086L32.6062 29.7612L42.3106 38.7185Z" fill="#F44336"/>
</svg>
