<svg width="43" height="43" viewBox="0 0 43 43" fill="none" xmlns="http://www.w3.org/2000/svg">
<g clip-path="url(#clip0_902_10939)">
<path d="M21.5 43C33.3741 43 43 33.3741 43 21.5C43 9.62588 33.3741 0 21.5 0C9.62588 0 0 9.62588 0 21.5C0 33.3741 9.62588 43 21.5 43Z" fill="white"/>
<path d="M9.17566 20.9944C9.17566 20.9944 19.9302 16.5825 23.6654 15.0216C25.0909 14.3991 29.9449 12.4142 29.9449 12.4142C29.9449 12.4142 32.1824 11.5481 31.9929 13.6593C31.9298 14.5254 31.4335 17.5749 30.9373 20.8681C30.1885 25.5326 29.3855 30.6301 29.3855 30.6301C29.3855 30.6301 29.2592 32.0647 28.2036 32.3083C27.148 32.5609 25.4067 31.4421 25.0909 31.1895C24.8383 31 20.4264 28.2031 18.8114 26.8408C18.3783 26.4709 17.8821 25.722 18.8746 24.8469C21.1121 22.7988 23.7827 20.2455 25.4067 18.6305C26.1555 17.8817 26.8953 16.1404 23.7917 18.2606C19.3798 21.3102 15.0221 24.1702 15.0221 24.1702C15.0221 24.1702 14.0296 24.7927 12.162 24.2334C10.2944 23.665 8.12006 22.9161 8.12006 22.9161C8.12006 22.9161 6.62237 21.9868 9.17566 20.9944Z" fill="#2258B9"/>
</g>
<defs>
<clipPath id="clip0_902_10939">
<rect width="43" height="43" fill="white"/>
</clipPath>
</defs>
</svg>
