<svg width="43" height="43" viewBox="0 0 43 43" fill="none" xmlns="http://www.w3.org/2000/svg">
<path d="M21.5 43C33.3741 43 43 33.3741 43 21.5C43 9.62588 33.3741 0 21.5 0C9.62588 0 0 9.62588 0 21.5C0 33.3741 9.62588 43 21.5 43Z" fill="white"/>
<path d="M23.3228 19.9936L30.4504 11.7021H28.7632L22.574 18.9019L17.6298 11.7021H11.9277L19.4072 22.583L11.9277 31.2714H13.6149L20.156 23.6747L25.3799 31.2714H31.082L23.3228 19.9936ZM21.0131 22.6822L20.2553 21.5995L14.2284 12.9743H16.8268L21.6898 19.9304L22.4477 21.0131L28.7723 30.0624H26.1739L21.0131 22.6822Z" fill="#2258B9"/>
</svg>
