<svg width="255" height="72" viewBox="0 0 255 72" fill="none" xmlns="http://www.w3.org/2000/svg">
<mask id="mask0_311_2580" style="mask-type:luminance" maskUnits="userSpaceOnUse" x="0" y="0" width="72" height="72">
<path d="M70.4362 39.9454L39.9432 70.4363C37.8581 72.5212 34.4711 72.5212 32.386 70.4363L1.56381 39.6112C-0.521269 37.5263 -0.521269 34.1395 1.56381 32.0546L32.0568 1.5637C34.1419 -0.521233 37.5289 -0.521233 39.614 1.5637L70.4362 32.3888C72.5213 34.4737 72.5213 37.8605 70.4362 39.9454Z" fill="white"/>
</mask>
<g mask="url(#mask0_311_2580)">
<path d="M4.75115 35.8821C5.5742 36.7051 6.31745 37.4433 7.08065 38.2014C9.01608 36.2761 10.9116 34.3857 12.862 32.4454C14.0243 33.6076 15.1466 34.7399 16.2989 35.8921C14.3535 37.8373 12.4579 39.7327 10.5275 41.658C12.453 43.5933 14.3435 45.4937 16.2839 47.444C15.1316 48.5962 14.0143 49.7135 12.842 50.8856C7.85382 45.8927 2.89054 40.9148 -2.14258 35.8721C10.5574 23.2029 23.2475 10.5437 36.0024 -2.1854C40.9856 2.80746 45.9489 7.77539 50.982 12.8231C49.8347 13.9703 48.7124 15.0976 47.5401 16.2697C45.5997 14.3344 43.7092 12.4391 41.7638 10.4988C40.9756 11.2869 40.2224 12.04 39.4442 12.8181C41.3797 14.7584 43.2702 16.6638 45.2006 18.5991C44.0534 19.7463 42.936 20.8586 41.7588 22.0407C38.681 18.9582 35.6482 15.9206 32.5505 12.8181C34.476 10.8878 36.3815 8.98246 38.3169 7.03719C37.5387 6.25409 36.8005 5.51089 36.0024 4.70785C33.2938 7.40629 30.6051 10.0898 27.8865 12.8032C32.5256 17.4519 37.1097 22.0457 41.7438 26.6944C43.6643 24.7691 45.5548 22.8737 47.5052 20.9184C50.5879 24.001 53.6407 27.0535 56.7284 30.141C54.8329 32.0713 52.9523 33.9817 51.0269 35.9469C52.9573 37.8473 54.8628 39.7327 56.8332 41.678C55.7009 42.8302 54.5885 43.9624 53.4212 45.1496C51.4708 43.2342 49.5604 41.3538 47.6 39.4334C45.6945 41.3638 43.8139 43.2641 41.8735 45.2343C40.7063 44.0871 39.5639 42.9699 38.4017 41.8226C42.2227 37.9421 46.0037 34.0964 49.8547 30.1859C49.0865 29.4228 48.3332 28.6796 47.5252 27.8765C42.921 32.5452 38.3668 37.164 33.7477 41.8526C35.6681 43.7529 37.5737 45.6284 39.534 47.5637C38.3817 48.7308 37.2594 49.8681 36.1171 51.0303C34.1817 49.1299 32.2861 47.2644 30.3307 45.3441C28.4103 47.2894 26.5148 49.2047 24.5743 51.1699C21.4318 47.9777 18.3291 44.8303 15.2015 41.658C17.1269 39.7327 19.0274 37.8373 20.9629 35.902C19.0424 33.9767 17.1569 32.0763 15.2065 30.1161C16.3587 28.9639 17.4911 27.8366 18.6533 26.6794C20.5838 28.6098 22.4793 30.5101 24.4197 32.4504C26.3402 30.5401 28.2407 28.6497 30.2011 26.6944C31.3483 27.8416 32.4757 28.9689 33.6429 30.136C29.782 33.9867 25.9511 37.8124 22.0802 41.673C22.8684 42.4611 23.6216 43.2143 24.4047 44.0023C29.0388 39.3786 33.6379 34.7947 38.2969 30.146C33.6729 25.5123 29.0737 20.9035 24.4347 16.2548C23.6366 17.0479 22.8833 17.801 22.1052 18.5791C24.0556 20.5344 25.9461 22.4348 27.8666 24.3651C26.7043 25.5223 25.587 26.6346 24.4197 27.7967C22.4893 25.8664 20.5987 23.976 18.6483 22.0258C14.0093 26.6495 9.40017 31.2434 4.75115 35.8821Z" fill="url(#paint0_linear_311_2580)"/>
<path d="M36.3223 74.167C31.2742 69.1991 26.2661 64.271 21.208 59.2931C22.3503 58.131 23.4527 57.0087 24.62 55.8216C26.5554 57.717 28.4609 59.5924 30.4462 61.5377C31.2194 60.7546 31.9626 60.0064 32.7508 59.2034C30.8004 57.278 28.8949 55.3976 26.9445 53.4723C28.0818 52.3101 29.1892 51.1829 30.3514 49.9957C33.4491 53.0433 36.5218 56.066 39.6445 59.1385C37.734 61.0838 35.8584 62.9941 33.923 64.9644C34.7011 65.7325 35.4594 66.4757 36.2625 67.2688C38.9511 64.5354 41.6048 61.8469 44.2985 59.1086C42.368 57.2082 40.4875 55.3477 38.572 53.4573C39.7093 52.3051 40.8217 51.1779 41.9889 49.9957C43.9044 51.8762 45.79 53.7267 47.7254 55.6271C48.4986 54.839 49.2269 54.0958 50.02 53.2877C48.0895 51.3824 46.189 49.5069 44.2187 47.5567C45.361 46.3945 46.4783 45.2523 47.6256 44.0851C49.571 45.9955 51.4815 47.8759 53.4519 49.8062C58.041 45.1425 62.5953 40.5188 67.2144 35.8302C66.4362 35.062 65.668 34.3039 64.8749 33.5158C62.9395 35.481 61.0539 37.3864 59.1434 39.3267C57.9812 38.1844 56.8588 37.0771 55.6766 35.915C57.5871 33.9697 59.4577 32.0643 61.3931 30.0941C59.4627 28.1887 57.5622 26.3133 55.5918 24.363C56.7391 23.1959 57.8565 22.0537 59.0038 20.8865C64.0469 25.8494 69.06 30.7824 74.1231 35.7653C61.5178 48.5742 48.9475 61.3432 36.3223 74.167Z" fill="url(#paint1_linear_311_2580)"/>
</g>
<path d="M98.624 47.288C97.9413 47.288 97.3867 47.128 96.96 46.808C96.5333 46.4667 96.192 45.9547 95.936 45.272L89.472 27.096C89.1947 26.2853 89.248 25.592 89.632 25.016C90.0373 24.44 90.7307 24.152 91.712 24.152C92.3947 24.152 92.9173 24.312 93.28 24.632C93.664 24.952 93.9733 25.4533 94.208 26.136L99.488 41.848H98.112L103.68 26.168C103.936 25.4853 104.245 24.984 104.608 24.664C104.992 24.3227 105.493 24.152 106.112 24.152C106.709 24.152 107.189 24.3227 107.552 24.664C107.915 24.984 108.224 25.496 108.48 26.2L113.792 41.848H112.608L117.984 26.136C118.197 25.4747 118.496 24.984 118.88 24.664C119.264 24.3227 119.787 24.152 120.448 24.152C121.28 24.152 121.888 24.44 122.272 25.016C122.656 25.592 122.699 26.2853 122.4 27.096L115.872 45.304C115.637 45.9653 115.317 46.4667 114.912 46.808C114.507 47.128 113.952 47.288 113.248 47.288C112.565 47.288 112.021 47.128 111.616 46.808C111.211 46.4667 110.88 45.9547 110.624 45.272L105.568 30.968H106.336L101.216 45.304C100.96 45.9653 100.629 46.4667 100.224 46.808C99.84 47.128 99.3067 47.288 98.624 47.288ZM135.986 47.352C133.767 47.352 131.815 46.872 130.13 45.912C128.466 44.9307 127.165 43.5653 126.226 41.816C125.309 40.0667 124.85 38.0293 124.85 35.704C124.85 33.9333 125.106 32.344 125.618 30.936C126.151 29.5067 126.909 28.2907 127.89 27.288C128.871 26.264 130.045 25.4747 131.41 24.92C132.797 24.3653 134.322 24.088 135.986 24.088C138.247 24.088 140.21 24.568 141.874 25.528C143.538 26.488 144.829 27.8427 145.746 29.592C146.685 31.32 147.154 33.3467 147.154 35.672C147.154 37.4427 146.887 39.0427 146.354 40.472C145.821 41.9013 145.063 43.128 144.082 44.152C143.101 45.176 141.927 45.9653 140.562 46.52C139.197 47.0747 137.671 47.352 135.986 47.352ZM135.986 43.128C137.245 43.128 138.311 42.84 139.186 42.264C140.082 41.6667 140.765 40.8133 141.234 39.704C141.725 38.5733 141.97 37.24 141.97 35.704C141.97 33.3573 141.447 31.544 140.402 30.264C139.357 28.9627 137.885 28.312 135.986 28.312C134.749 28.312 133.682 28.6 132.786 29.176C131.89 29.752 131.207 30.5947 130.738 31.704C130.269 32.8133 130.034 34.1467 130.034 35.704C130.034 38.0293 130.557 39.8533 131.602 41.176C132.647 42.4773 134.109 43.128 135.986 43.128ZM153.487 47.288C152.676 47.288 152.057 47.064 151.631 46.616C151.204 46.168 150.991 45.5387 150.991 44.728V26.968C150.991 26.136 151.204 25.5067 151.631 25.08C152.079 24.6533 152.708 24.44 153.519 24.44H161.295C163.812 24.44 165.753 25.048 167.119 26.264C168.484 27.48 169.167 29.176 169.167 31.352C169.167 32.76 168.857 33.976 168.239 35C167.62 36.024 166.724 36.8133 165.551 37.368C164.399 37.9227 162.98 38.2 161.295 38.2L161.551 37.656H162.863C163.759 37.656 164.537 37.88 165.199 38.328C165.881 38.7547 166.468 39.416 166.959 40.312L168.943 43.992C169.241 44.5253 169.38 45.048 169.359 45.56C169.337 46.072 169.145 46.488 168.783 46.808C168.42 47.128 167.887 47.288 167.183 47.288C166.479 47.288 165.903 47.1387 165.455 46.84C165.028 46.5413 164.644 46.0827 164.303 45.464L161.231 39.8C160.911 39.2027 160.516 38.7973 160.047 38.584C159.599 38.3707 159.044 38.264 158.383 38.264H155.951V44.728C155.951 45.5387 155.737 46.168 155.311 46.616C154.905 47.064 154.297 47.288 153.487 47.288ZM155.951 34.68H160.399C161.721 34.68 162.713 34.4133 163.375 33.88C164.057 33.3467 164.399 32.5467 164.399 31.48C164.399 30.4347 164.057 29.6453 163.375 29.112C162.713 28.5787 161.721 28.312 160.399 28.312H155.951V34.68ZM175.864 47C175.032 47 174.392 46.776 173.944 46.328C173.496 45.88 173.272 45.24 173.272 44.408V27.032C173.272 26.2 173.496 25.56 173.944 25.112C174.392 24.664 175.032 24.44 175.864 24.44H182.104C185.965 24.44 188.941 25.4213 191.032 27.384C193.144 29.3253 194.2 32.0987 194.2 35.704C194.2 37.5173 193.923 39.128 193.368 40.536C192.835 41.9227 192.056 43.096 191.032 44.056C190.008 45.016 188.749 45.752 187.256 46.264C185.763 46.7547 184.045 47 182.104 47H175.864ZM178.232 42.936H181.816C183.032 42.936 184.088 42.7867 184.984 42.488C185.88 42.1893 186.627 41.7413 187.224 41.144C187.821 40.5467 188.269 39.8 188.568 38.904C188.867 37.9867 189.016 36.92 189.016 35.704C189.016 33.272 188.408 31.4693 187.192 30.296C185.997 29.1013 184.205 28.504 181.816 28.504H178.232V42.936ZM207.717 47.352C206.117 47.352 204.699 47.1493 203.461 46.744C202.245 46.3173 201.221 45.6987 200.389 44.888C199.557 44.0773 198.928 43.064 198.501 41.848C198.096 40.6107 197.893 39.1813 197.893 37.56V26.68C197.893 25.848 198.107 25.2187 198.533 24.792C198.96 24.3653 199.579 24.152 200.389 24.152C201.179 24.152 201.787 24.3653 202.213 24.792C202.64 25.2187 202.853 25.848 202.853 26.68V37.592C202.853 39.4267 203.269 40.8133 204.101 41.752C204.933 42.6693 206.139 43.128 207.717 43.128C209.296 43.128 210.491 42.6693 211.301 41.752C212.133 40.8133 212.549 39.4267 212.549 37.592V26.68C212.549 25.848 212.763 25.2187 213.189 24.792C213.616 24.3653 214.224 24.152 215.013 24.152C215.803 24.152 216.4 24.3653 216.805 24.792C217.232 25.2187 217.445 25.848 217.445 26.68V37.56C217.445 39.7147 217.072 41.528 216.325 43C215.6 44.4507 214.512 45.5387 213.061 46.264C211.632 46.9893 209.851 47.352 207.717 47.352ZM224.139 47.288C223.413 47.288 222.859 47.0853 222.475 46.68C222.091 46.2747 221.899 45.7093 221.899 44.984V26.456C221.899 25.7307 222.101 25.1653 222.507 24.76C222.933 24.3547 223.509 24.152 224.235 24.152C224.875 24.152 225.376 24.28 225.739 24.536C226.123 24.7707 226.475 25.1867 226.795 25.784L234.187 39.288H233.099L240.491 25.784C240.811 25.1867 241.152 24.7707 241.515 24.536C241.899 24.28 242.4 24.152 243.019 24.152C243.744 24.152 244.299 24.3547 244.683 24.76C245.088 25.1653 245.291 25.7307 245.291 26.456V44.984C245.291 45.7093 245.099 46.2747 244.715 46.68C244.331 47.0853 243.776 47.288 243.051 47.288C242.325 47.288 241.76 47.0853 241.355 46.68C240.971 46.2747 240.779 45.7093 240.779 44.984V32.024H241.483L235.531 42.68C235.275 43.0853 234.997 43.3947 234.699 43.608C234.421 43.8 234.048 43.896 233.579 43.896C233.109 43.896 232.725 43.7893 232.427 43.576C232.128 43.3627 231.861 43.064 231.627 42.68L225.611 31.992H226.379V44.984C226.379 45.7093 226.187 46.2747 225.803 46.68C225.44 47.0853 224.885 47.288 224.139 47.288Z" fill="white"/>
<defs>
<linearGradient id="paint0_linear_311_2580" x1="28.0365" y1="51.3567" x2="25.8938" y2="-1.77417" gradientUnits="userSpaceOnUse">
<stop offset="0.141667" stop-color="#00E5E5"/>
<stop offset="1" stop-color="#01C1C1"/>
</linearGradient>
<linearGradient id="paint1_linear_311_2580" x1="48.7232" y1="73.6692" x2="46.6148" y2="21.3914" gradientUnits="userSpaceOnUse">
<stop offset="0.4934" stop-color="#00E5E5"/>
<stop offset="1" stop-color="#01C1C1"/>
</linearGradient>
</defs>
</svg>
