<svg width="164" height="164" viewBox="0 0 164 164" fill="none" xmlns="http://www.w3.org/2000/svg">
<mask id="mask0_871_7212" style="mask-type:luminance" maskUnits="userSpaceOnUse" x="0" y="0" width="164" height="164">
<path d="M160.438 90.9868L90.9817 160.438C86.2324 165.187 78.5175 165.187 73.7682 160.438L3.56201 90.2256C-1.18734 85.4765 -1.18734 77.7622 3.56201 73.0132L73.0183 3.56175C77.7676 -1.18727 85.4825 -1.18727 90.2318 3.56175L160.438 73.7744C165.187 78.5234 165.187 86.2377 160.438 90.9868Z" fill="white"/>
</mask>
<g mask="url(#mask0_871_7212)">
<path d="M10.822 81.7402C12.6967 83.6148 14.3897 85.2963 16.1281 87.0232C20.5366 82.6377 24.8541 78.3318 29.2967 73.9123C31.9441 76.5595 34.5005 79.1385 37.1252 81.7629C32.694 86.1938 28.3764 90.5111 23.9793 94.8965C28.365 99.3047 32.6712 103.633 37.0911 108.076C34.4664 110.7 31.9213 113.245 29.2513 115.915C17.8892 104.542 6.58395 93.2037 -4.88037 81.7175C24.0474 52.8598 52.9525 24.0249 82.0053 -4.96906C93.356 6.40357 104.661 17.7194 116.126 29.217C113.512 31.8301 110.956 34.3978 108.286 37.0677C103.866 32.6595 99.5597 28.3422 95.1285 23.9227C93.3333 25.7177 91.6176 27.4333 89.8451 29.2057C94.2536 33.6252 98.5598 37.9652 102.957 42.3734C100.344 44.9865 97.7986 47.52 95.1171 50.2127C88.1067 43.1914 81.1986 36.2724 74.1428 29.2057C78.5285 24.8088 82.8688 20.4688 87.2773 16.0379C85.5048 14.2542 83.8232 12.5614 82.0053 10.7322C75.8357 16.8787 69.7116 22.991 63.5192 29.1716C74.086 39.7603 84.5277 50.224 95.0831 60.8127C99.4574 56.4273 103.764 52.11 108.206 47.6564C115.228 54.6776 122.182 61.6307 129.215 68.6634C124.897 73.0602 120.614 77.4115 116.228 81.8879C120.625 86.2165 124.965 90.5111 129.453 94.942C126.874 97.5665 124.34 100.145 121.682 102.849C117.239 98.4867 112.887 94.2035 108.422 89.8294C104.082 94.2262 99.7983 98.5549 95.3785 103.043C92.7197 100.429 90.1178 97.8846 87.4705 95.2715C96.1738 86.4324 104.786 77.6729 113.558 68.7656C111.808 67.0273 110.092 65.3345 108.252 63.5053C97.7645 74.1395 87.3909 84.66 76.8697 95.3396C81.244 99.6683 85.5844 103.94 90.0497 108.348C87.425 111.007 84.8685 113.597 82.2666 116.244C77.8582 111.916 73.5406 107.667 69.0866 103.293C64.7123 107.723 60.3947 112.086 55.9748 116.563C48.8167 109.291 41.7495 102.122 34.6255 94.8965C39.0113 90.5111 43.3402 86.1938 47.7487 81.7856C43.3743 77.4002 39.0794 73.0715 34.6369 68.6066C37.2615 65.9821 39.8407 63.4145 42.4881 60.7786C46.8852 65.1755 51.2028 69.5041 55.6226 73.9236C59.997 69.5723 64.3259 65.2663 68.7912 60.8127C71.4045 63.4258 73.9723 65.9935 76.6311 68.652C67.8368 77.4229 59.1108 86.137 50.2938 94.9306C52.089 96.7257 53.8047 98.4413 55.5885 100.236C66.1439 89.7044 76.6197 79.2634 87.2319 68.6747C76.6992 58.1201 66.2234 47.6223 55.6567 37.0336C53.8388 38.84 52.1231 40.5556 50.3506 42.3279C54.7932 46.7815 59.0994 51.1102 63.4738 55.507C60.8264 58.1428 58.2813 60.6764 55.6226 63.3236C51.2255 58.9268 46.9193 54.6208 42.4767 50.1786C31.91 60.7105 21.4114 71.1742 10.822 81.7402Z" fill="url(#paint0_linear_871_7212)"/>
<path d="M82.7327 168.938C71.2343 157.622 59.8268 146.397 48.3057 135.058C50.9076 132.411 53.4186 129.855 56.0773 127.151C60.4858 131.468 64.8261 135.74 69.3482 140.171C71.1093 138.387 72.8023 136.683 74.5975 134.854C70.1549 130.468 65.8146 126.185 61.372 121.8C63.9626 119.152 66.485 116.585 69.1323 113.881C76.1882 120.822 83.1872 127.707 90.2998 134.706C85.9482 139.137 81.676 143.488 77.2676 147.976C79.04 149.726 80.7671 151.418 82.5964 153.225C88.7205 146.999 94.7651 140.875 100.901 134.638C96.5035 130.309 92.22 126.071 87.857 121.765C90.4476 119.141 92.9813 116.573 95.64 113.881C100.003 118.164 104.298 122.379 108.706 126.708C110.468 124.913 112.126 123.22 113.933 121.379C109.536 117.039 105.207 112.767 100.719 108.325C103.321 105.678 105.866 103.076 108.479 100.418C112.91 104.769 117.262 109.052 121.75 113.449C132.203 102.826 142.577 92.2943 153.098 81.6147C151.325 79.8651 149.576 78.1382 147.769 76.3431C143.361 80.8194 139.066 85.1595 134.714 89.579C132.067 86.9773 129.51 84.455 126.818 81.8079C131.169 77.377 135.43 73.037 139.838 68.5493C135.441 64.2093 131.112 59.9374 126.624 55.4952C129.238 52.8366 131.783 50.2349 134.396 47.5763C145.883 58.8808 157.302 70.1171 168.834 81.467C140.122 110.643 111.49 139.728 82.7327 168.938Z" fill="url(#paint1_linear_871_7212)"/>
</g>
<defs>
<linearGradient id="paint0_linear_871_7212" x1="63.861" y1="116.988" x2="58.9803" y2="-4.03238" gradientUnits="userSpaceOnUse">
<stop offset="0.141667" stop-color="#FBDCF5"/>
<stop offset="1" stop-color="#F4C9EC"/>
</linearGradient>
<linearGradient id="paint1_linear_871_7212" x1="110.979" y1="167.804" x2="106.177" y2="48.7265" gradientUnits="userSpaceOnUse">
<stop offset="0.4934" stop-color="#FBDCF5"/>
<stop offset="1" stop-color="#F4C9EC"/>
</linearGradient>
</defs>
</svg>
